# xmcd
#
# Track frame offsets: 
#        180
#        57247
#        111148
#        171754
#        245599
#
# Disc length: 4530 seconds
#
# Revision: 1
# Processed by: cddbd v1.5.2PL0 Copyright (c) Steve Scherf et al.
# Submitted via: ExactAudioCopy v0.90b4
#
DISCID=3d11b005
DTITLE=Freddie Hubbard - Abstract Blues
DYEAR=1994
DGENRE=Jazz
TTITLE0=Bolivia
TTITLE1=God Bless The Child
TTITLE2=All Blues
TTITLE3=Dear John
TTITLE4=Blues For Duane
EXTD=YEAR: 1994
EXTT0=
EXTT1=
EXTT2=
EXTT3=
EXTT4=
PLAYORDER=
